<svg version="1.1" xmlns="http://www.w3.org/2000/svg" xmlns:xlink="http://www.w3.org/1999/xlink" width="467.77937" height="700.85106" viewBox="0,0,467.77937,700.85106"><defs><linearGradient x1="182.64581" y1="-8.66667" x2="182.64581" y2="650.33333" gradientUnits="userSpaceOnUse" id="color-1"><stop offset="0" stop-color="#121317"/><stop offset="1" stop-color="#0f0f11"/></linearGradient></defs><g transform="translate(50.50093,49.51773)"><g stroke-miterlimit="10"><path d="M-7.35419,650.33333v-659h380v659z" fill="url(#color-1)" stroke="#000000" stroke-width="2"/><path d="M89.56861,53.81552c-8.60428,3.62306 -18.6988,-0.84795 -22.54674,-9.98629l-11.03159,-26.1985c-3.84795,-9.13834 0.00783,-19.4835 8.61211,-23.10656l25.96571,-10.93356c8.60428,-3.62307 18.6988,0.84795 22.54675,9.98629l11.03158,26.19851c3.84794,9.13834 -0.00783,19.4835 -8.61211,23.10656z" fill="#1d1e26" stroke="none" stroke-width="0"/><path d="M165.20942,21.96494c-8.60429,3.62307 -18.6988,-0.84794 -22.54675,-9.98628l-11.03159,-26.19851c-3.84794,-9.13834 0.00782,-19.4835 8.61211,-23.10656l25.96571,-10.93355c8.60429,-3.62306 18.6988,0.84795 22.54675,9.98629l11.03159,26.19851c3.84795,9.13834 -0.00782,19.4835 -8.61211,23.10657z" fill="#1d1e26" stroke="none" stroke-width="0"/><path d="M161.56861,110.81552c-8.60428,3.62306 -18.69879,-0.84795 -22.54674,-9.98629l-11.03159,-26.1985c-3.84794,-9.13834 0.00783,-19.4835 8.61211,-23.10656l25.9657,-10.93356c8.60428,-3.62306 18.6988,0.84795 22.54675,9.98629l11.03159,26.19851c3.84795,9.13834 -0.00783,19.4835 -8.61211,23.10656z" fill="#1d1e26" stroke="none" stroke-width="0"/><path d="M237.20942,78.96494c-8.60429,3.62306 -18.6988,-0.84794 -22.54675,-9.98628l-11.03159,-26.19851c-3.84795,-9.13834 0.00782,-19.4835 8.61211,-23.10657l25.96571,-10.93355c8.60429,-3.62307 18.69881,0.84795 22.54675,9.98629l11.03159,26.19851c3.84794,9.13834 -0.00783,19.4835 -8.61211,23.10656z" fill="#1d1e26" stroke="none" stroke-width="0"/><path d="M13.20942,84.96494c-8.60429,3.62306 -18.6988,-0.84794 -22.54675,-9.98628l-11.03158,-26.19851c-3.84794,-9.13834 0.00783,-19.4835 8.61211,-23.10657l25.96571,-10.93355c8.60429,-3.62307 18.69881,0.84795 22.54675,9.98629l11.03159,26.19851c3.84795,9.13834 -0.00783,19.4835 -8.61211,23.10656z" fill="#1d1e26" stroke="none" stroke-width="0"/><path d="M9.56861,173.81552c-8.60428,3.62306 -18.69879,-0.84794 -22.54674,-9.98628l-11.03158,-26.19851c-3.84794,-9.13834 0.00783,-19.4835 8.61211,-23.10657l25.96571,-10.93356c8.60428,-3.62306 18.6988,0.84795 22.54675,9.98629l11.03159,26.1985c3.84795,9.13834 -0.00783,19.4835 -8.61211,23.10656z" fill="#191a21" stroke="none" stroke-width="0"/><path d="M85.20942,141.96494c-8.60429,3.62306 -18.69881,-0.84795 -22.54675,-9.98629l-11.03158,-26.19851c-3.84795,-9.13834 0.00782,-19.4835 8.61211,-23.10657l25.96571,-10.93355c8.60429,-3.62306 18.69881,0.84794 22.54675,9.98628l11.03158,26.19851c3.84794,9.13834 -0.00782,19.4835 -8.61211,23.10657z" fill="#1d1e26" stroke="none" stroke-width="0"/><path d="M233.56861,166.81552c-8.60428,3.62306 -18.69879,-0.84794 -22.54674,-9.98628l-11.03159,-26.19851c-3.84795,-9.13834 0.00783,-19.4835 8.61211,-23.10657l25.9657,-10.93356c8.60428,-3.62306 18.6988,0.84795 22.54675,9.98629l11.03159,26.1985c3.84794,9.13834 -0.00783,19.4835 -8.61211,23.10656z" fill="#191a21" stroke="none" stroke-width="0"/><path d="M309.20941,134.96494c-8.60429,3.62306 -18.6988,-0.84795 -22.54675,-9.98628l-11.03159,-26.19851c-3.84794,-9.13834 0.00783,-19.4835 8.61211,-23.10657l25.9657,-10.93355c8.60429,-3.62306 18.69881,0.84794 22.54675,9.98628l11.03159,26.19851c3.84794,9.13834 -0.00783,19.4835 -8.61211,23.10657z" fill="#1d1e26" stroke="none" stroke-width="0"/><path d="M305.56861,223.81552c-8.60428,3.62306 -18.6988,-0.84794 -22.54674,-9.98628l-11.03159,-26.19851c-3.84794,-9.13834 0.00783,-19.4835 8.61211,-23.10656l25.96571,-10.93356c8.60428,-3.62306 18.6988,0.84795 22.54674,9.98629l11.03159,26.1985c3.84794,9.13834 -0.00783,19.4835 -8.61211,23.10656z" fill="#191a21" stroke="none" stroke-width="0"/><path d="M381.20942,191.96494c-8.60429,3.62306 -18.6988,-0.84795 -22.54675,-9.98629l-11.03159,-26.19851c-3.84794,-9.13834 0.00783,-19.4835 8.61211,-23.10656l25.9657,-10.93355c8.60429,-3.62306 18.69881,0.84794 22.54675,9.98628l11.03159,26.19851c3.84794,9.13834 -0.00783,19.4835 -8.61211,23.10657z" fill="#191a21" stroke="none" stroke-width="0"/><path d="M81.56861,229.81552c-8.60428,3.62306 -18.6988,-0.84794 -22.54674,-9.98628l-11.03158,-26.19851c-3.84795,-9.13834 0.00783,-19.4835 8.61211,-23.10656l25.96571,-10.93356c8.60428,-3.62306 18.6988,0.84795 22.54675,9.98629l11.03158,26.1985c3.84794,9.13834 -0.00783,19.4835 -8.61211,23.10656z" fill="#191a21" stroke="none" stroke-width="0"/><path d="M157.20942,197.96494c-8.60429,3.62306 -18.6988,-0.84795 -22.54675,-9.98629l-11.03159,-26.19851c-3.84794,-9.13834 0.00782,-19.4835 8.61211,-23.10656l25.96571,-10.93355c8.60429,-3.62306 18.6988,0.84794 22.54675,9.98628l11.03159,26.19851c3.84795,9.13834 -0.00782,19.4835 -8.61211,23.10657z" fill="#191a21" stroke="none" stroke-width="0"/><path d="M153.56861,286.81552c-8.60428,3.62306 -18.69879,-0.84794 -22.54674,-9.98629l-11.03159,-26.1985c-3.84794,-9.13834 0.00783,-19.4835 8.61211,-23.10656l25.9657,-10.93356c8.60428,-3.62306 18.6988,0.84795 22.54675,9.98629l11.03159,26.1985c3.84795,9.13834 -0.00783,19.4835 -8.61211,23.10656z" fill="#191a21" stroke="none" stroke-width="0"/><path d="M229.20942,254.96494c-8.60429,3.62307 -18.6988,-0.84795 -22.54675,-9.98629l-11.03159,-26.19851c-3.84795,-9.13834 0.00782,-19.4835 8.61211,-23.10656l25.96571,-10.93356c8.60429,-3.62306 18.6988,0.84795 22.54675,9.98629l11.03159,26.19851c3.84794,9.13834 -0.00783,19.4835 -8.61211,23.10657z" fill="#191a21" stroke="none" stroke-width="0"/><path d="M297.56861,311.81552c-8.60428,3.62306 -18.6988,-0.84794 -22.54674,-9.98629l-11.03159,-26.1985c-3.84794,-9.13834 0.00783,-19.4835 8.61211,-23.10657l25.96571,-10.93356c8.60428,-3.62306 18.6988,0.84795 22.54674,9.98629l11.03159,26.1985c3.84794,9.13834 -0.00783,19.4835 -8.61211,23.10656z" fill="#191a21" stroke="none" stroke-width="0"/><path d="M373.20942,279.96494c-8.60429,3.62306 -18.6988,-0.84795 -22.54675,-9.98629l-11.03159,-26.19851c-3.84794,-9.13834 0.00783,-19.4835 8.61211,-23.10656l25.9657,-10.93356c8.60429,-3.62306 18.69881,0.84795 22.54675,9.98629l11.03159,26.19851c3.84794,9.13834 -0.00783,19.4835 -8.61211,23.10657z" fill="#191a21" stroke="none" stroke-width="0"/><path d="M369.56861,368.81552c-8.60428,3.62306 -18.6988,-0.84794 -22.54674,-9.98629l-11.03159,-26.1985c-3.84794,-9.13834 0.00783,-19.4835 8.61211,-23.10657l25.96571,-10.93356c8.60428,-3.62306 18.6988,0.84795 22.54674,9.98629l11.03159,26.19851c3.84794,9.13834 -0.00783,19.4835 -8.61211,23.10656z" fill="#15161c" stroke="none" stroke-width="0"/><path d="M145.56861,374.81552c-8.60428,3.62306 -18.6988,-0.84794 -22.54674,-9.98629l-11.03159,-26.1985c-3.84794,-9.13834 0.00783,-19.4835 8.61211,-23.10657l25.9657,-10.93356c8.60428,-3.62306 18.6988,0.84795 22.54675,9.98629l11.03159,26.19851c3.84795,9.13834 -0.00783,19.4835 -8.61211,23.10656z" fill="#15161c" stroke="none" stroke-width="0"/><path d="M221.20942,342.96494c-8.60429,3.62306 -18.6988,-0.84795 -22.54675,-9.98629l-11.03159,-26.19851c-3.84795,-9.13834 0.00782,-19.4835 8.61211,-23.10656l25.96571,-10.93356c8.60429,-3.62306 18.6988,0.84795 22.54675,9.98629l11.03159,26.19851c3.84795,9.13834 -0.00782,19.4835 -8.61211,23.10656z" fill="#15161c" stroke="none" stroke-width="0"/><path d="M217.56861,431.81552c-8.60428,3.62306 -18.69879,-0.84794 -22.54674,-9.98629l-11.03159,-26.1985c-3.84795,-9.13834 0.00783,-19.4835 8.61211,-23.10657l25.9657,-10.93356c8.60428,-3.62306 18.6988,0.84795 22.54675,9.98629l11.03159,26.19851c3.84795,9.13834 -0.00783,19.4835 -8.61211,23.10656z" fill="#15161c" stroke="none" stroke-width="0"/><path d="M293.20941,399.96494c-8.60429,3.62306 -18.6988,-0.84795 -22.54675,-9.98629l-11.03159,-26.19851c-3.84795,-9.13834 0.00783,-19.4835 8.61211,-23.10656l25.9657,-10.93356c8.60429,-3.62306 18.69881,0.84795 22.54675,9.98629l11.03159,26.19851c3.84794,9.13834 -0.00783,19.4835 -8.61211,23.10656z" fill="#15161c" stroke="none" stroke-width="0"/><path d="M65.56861,496.81552c-8.60428,3.62306 -18.6988,-0.84794 -22.54674,-9.98629l-11.03158,-26.1985c-3.84794,-9.13834 0.00783,-19.4835 8.61211,-23.10657l25.96571,-10.93356c8.60428,-3.62306 18.6988,0.84795 22.54675,9.98629l11.03158,26.19851c3.84794,9.13834 -0.00783,19.4835 -8.61211,23.10656z" fill="#13141a" stroke="none" stroke-width="0"/><path d="M141.20942,464.96494c-8.60429,3.62306 -18.69881,-0.84795 -22.54675,-9.98629l-11.03159,-26.19851c-3.84794,-9.13834 0.00782,-19.4835 8.61211,-23.10656l25.96571,-10.93356c8.60429,-3.62306 18.6988,0.84795 22.54675,9.98629l11.03159,26.19851c3.84795,9.13834 -0.00782,19.4835 -8.61211,23.10656z" fill="#13141a" stroke="none" stroke-width="0"/><path d="M137.56861,553.81552c-8.60428,3.62306 -18.6988,-0.84794 -22.54674,-9.98628l-11.03159,-26.19851c-3.84794,-9.13834 0.00783,-19.4835 8.61211,-23.10656l25.9657,-10.93356c8.60428,-3.62306 18.6988,0.84795 22.54675,9.98629l11.03159,26.19851c3.84795,9.13834 -0.00783,19.4835 -8.61211,23.10656z" fill="#13141a" stroke="none" stroke-width="0"/><path d="M-15.43139,616.81552c-8.60428,3.62306 -18.69879,-0.84794 -22.54674,-9.98628l-11.03158,-26.19851c-3.84795,-9.13834 0.00783,-19.4835 8.61211,-23.10656l25.96571,-10.93356c8.60428,-3.62306 18.6988,0.84795 22.54675,9.98629l11.03158,26.1985c3.84794,9.13834 -0.00783,19.4835 -8.61211,23.10656z" fill="#13141a" stroke="none" stroke-width="0"/><path d="M61.20942,584.96494c-8.60428,3.62306 -18.6988,-0.84794 -22.54675,-9.98628l-11.03158,-26.19851c-3.84794,-9.13834 0.00782,-19.4835 8.61211,-23.10656l25.96571,-10.93356c8.60429,-3.62306 18.69881,0.84795 22.54675,9.98629l11.03158,26.19851c3.84794,9.13834 -0.00782,19.4835 -8.61211,23.10657z" fill="#13141a" stroke="none" stroke-width="0"/></g></g></svg>